<svg xmlns="http://www.w3.org/2000/svg" viewBox="0 0 700 440" width="700" height="440">
  <defs>
    <linearGradient id="bg" x1="0%" y1="0%" x2="100%" y2="100%">
      <stop offset="0%" style="stop-color:#1e1e3f"/>
      <stop offset="100%" style="stop-color:#16213e"/>
    </linearGradient>
    <marker id="arr" markerWidth="8" markerHeight="6" refX="7" refY="3" orient="auto">
      <polygon points="0 0, 8 3, 0 6" fill="#888"/>
    </marker>
  </defs>
  <rect width="700" height="440" fill="url(#bg)" rx="12"/>
  <text x="350" y="32" text-anchor="middle" fill="#f39c12" font-size="17" font-family="Arial,sans-serif" font-weight="bold">Day 03 — WBS (Work Breakdown Structure)</text>

  <!-- Level 0: Project -->
  <rect x="250" y="55" width="200" height="46" rx="8" fill="#6c63ff"/>
  <text x="350" y="74" text-anchor="middle" fill="white" font-size="13" font-family="Arial,sans-serif" font-weight="bold">📦 모바일 뱅킹 앱</text>
  <text x="350" y="92" text-anchor="middle" fill="#ddd" font-size="10" font-family="Arial,sans-serif">Level 0 — 프로젝트</text>

  <!-- Level 1 connectors -->
  <line x1="350" y1="101" x2="350" y2="120" stroke="#888" stroke-width="1.5"/>
  <line x1="100" y1="120" x2="600" y2="120" stroke="#888" stroke-width="1.5"/>
  <line x1="100" y1="120" x2="100" y2="140" stroke="#888" stroke-width="1.5"/>
  <line x1="250" y1="120" x2="250" y2="140" stroke="#888" stroke-width="1.5"/>
  <line x1="450" y1="120" x2="450" y2="140" stroke="#888" stroke-width="1.5"/>
  <line x1="600" y1="120" x2="600" y2="140" stroke="#888" stroke-width="1.5"/>

  <!-- Level 1: 4 items -->
  <rect x="30" y="140" width="140" height="40" rx="7" fill="#00d4aa"/>
  <text x="100" y="156" text-anchor="middle" fill="white" font-size="11" font-family="Arial,sans-serif" font-weight="bold">1. 기획·분석</text>
  <text x="100" y="172" text-anchor="middle" fill="#ddd" font-size="9" font-family="Arial,sans-serif">Level 1</text>

  <rect x="178" y="140" width="145" height="40" rx="7" fill="#00d4aa"/>
  <text x="250" y="156" text-anchor="middle" fill="white" font-size="11" font-family="Arial,sans-serif" font-weight="bold">2. 설계</text>
  <text x="250" y="172" text-anchor="middle" fill="#ddd" font-size="9" font-family="Arial,sans-serif">Level 1</text>

  <rect x="377" y="140" width="145" height="40" rx="7" fill="#00d4aa"/>
  <text x="450" y="156" text-anchor="middle" fill="white" font-size="11" font-family="Arial,sans-serif" font-weight="bold">3. 개발</text>
  <text x="450" y="172" text-anchor="middle" fill="#ddd" font-size="9" font-family="Arial,sans-serif">Level 1</text>

  <rect x="530" y="140" width="140" height="40" rx="7" fill="#00d4aa"/>
  <text x="600" y="156" text-anchor="middle" fill="white" font-size="11" font-family="Arial,sans-serif" font-weight="bold">4. 테스트·배포</text>
  <text x="600" y="172" text-anchor="middle" fill="#ddd" font-size="9" font-family="Arial,sans-serif">Level 1</text>

  <!-- Level 2 connectors from 1. 기획 -->
  <line x1="100" y1="180" x2="100" y2="210" stroke="#888" stroke-width="1.5"/>
  <line x1="55" y1="210" x2="145" y2="210" stroke="#888" stroke-width="1.5"/>
  <line x1="55" y1="210" x2="55" y2="226" stroke="#888" stroke-width="1.5"/>
  <line x1="145" y1="210" x2="145" y2="226" stroke="#888" stroke-width="1.5"/>
  <rect x="20" y="226" width="70" height="36" rx="5" fill="rgba(0,212,170,0.3)" stroke="#00d4aa" stroke-width="1"/>
  <text x="55" y="242" text-anchor="middle" fill="#e0e0e0" font-size="9" font-family="Arial,sans-serif" font-weight="bold">1.1</text>
  <text x="55" y="254" text-anchor="middle" fill="#e0e0e0" font-size="8" font-family="Arial,sans-serif">요구사항 수집</text>
  <rect x="110" y="226" width="70" height="36" rx="5" fill="rgba(0,212,170,0.3)" stroke="#00d4aa" stroke-width="1"/>
  <text x="145" y="242" text-anchor="middle" fill="#e0e0e0" font-size="9" font-family="Arial,sans-serif" font-weight="bold">1.2</text>
  <text x="145" y="254" text-anchor="middle" fill="#e0e0e0" font-size="8" font-family="Arial,sans-serif">현업 인터뷰</text>

  <!-- Level 2 from 3. 개발 -->
  <line x1="450" y1="180" x2="450" y2="210" stroke="#888" stroke-width="1.5"/>
  <line x1="360" y1="210" x2="540" y2="210" stroke="#888" stroke-width="1.5"/>
  <line x1="360" y1="210" x2="360" y2="226" stroke="#888" stroke-width="1.5"/>
  <line x1="450" y1="210" x2="450" y2="226" stroke="#888" stroke-width="1.5"/>
  <line x1="540" y1="210" x2="540" y2="226" stroke="#888" stroke-width="1.5"/>
  <rect x="325" y="226" width="70" height="36" rx="5" fill="rgba(0,212,170,0.3)" stroke="#00d4aa" stroke-width="1"/>
  <text x="360" y="242" text-anchor="middle" fill="#e0e0e0" font-size="9" font-family="Arial,sans-serif" font-weight="bold">3.1</text>
  <text x="360" y="254" text-anchor="middle" fill="#e0e0e0" font-size="8" font-family="Arial,sans-serif">프론트엔드</text>
  <rect x="415" y="226" width="70" height="36" rx="5" fill="rgba(0,212,170,0.3)" stroke="#00d4aa" stroke-width="1"/>
  <text x="450" y="242" text-anchor="middle" fill="#e0e0e0" font-size="9" font-family="Arial,sans-serif" font-weight="bold">3.2</text>
  <text x="450" y="254" text-anchor="middle" fill="#e0e0e0" font-size="8" font-family="Arial,sans-serif">백엔드 API</text>
  <rect x="505" y="226" width="70" height="36" rx="5" fill="rgba(0,212,170,0.3)" stroke="#00d4aa" stroke-width="1"/>
  <text x="540" y="242" text-anchor="middle" fill="#e0e0e0" font-size="9" font-family="Arial,sans-serif" font-weight="bold">3.3</text>
  <text x="540" y="254" text-anchor="middle" fill="#e0e0e0" font-size="8" font-family="Arial,sans-serif">DB 구축</text>

  <!-- Level 3 from 3.2 -->
  <line x1="450" y1="262" x2="450" y2="290" stroke="#888" stroke-width="1.5"/>
  <line x1="390" y1="290" x2="510" y2="290" stroke="#888" stroke-width="1.5"/>
  <line x1="390" y1="290" x2="390" y2="306" stroke="#888" stroke-width="1.5"/>
  <line x1="510" y1="290" x2="510" y2="306" stroke="#888" stroke-width="1.5"/>
  <rect x="355" y="306" width="70" height="36" rx="5" fill="rgba(243,156,18,0.25)" stroke="#f39c12" stroke-width="1"/>
  <text x="390" y="322" text-anchor="middle" fill="#e0e0e0" font-size="9" font-family="Arial,sans-serif" font-weight="bold">3.2.1</text>
  <text x="390" y="334" text-anchor="middle" fill="#e0e0e0" font-size="8" font-family="Arial,sans-serif">회원 API</text>
  <rect x="475" y="306" width="70" height="36" rx="5" fill="rgba(243,156,18,0.25)" stroke="#f39c12" stroke-width="1"/>
  <text x="510" y="322" text-anchor="middle" fill="#e0e0e0" font-size="9" font-family="Arial,sans-serif" font-weight="bold">3.2.2</text>
  <text x="510" y="334" text-anchor="middle" fill="#e0e0e0" font-size="8" font-family="Arial,sans-serif">결제 API</text>

  <!-- Work Package tag -->
  <rect x="355" y="355" width="230" height="32" rx="6" fill="rgba(231,76,60,0.2)" stroke="#e74c3c" stroke-width="1.5"/>
  <text x="470" y="367" text-anchor="middle" fill="#e74c3c" font-size="10" font-family="Arial,sans-serif" font-weight="bold">Work Package (최소 단위)</text>
  <text x="470" y="380" text-anchor="middle" fill="#e0e0e0" font-size="9" font-family="Arial,sans-serif">담당자·기간·비용 배정 가능한 최소 작업</text>

  <!-- Legend -->
  <rect x="20" y="390" width="280" height="40" rx="6" fill="rgba(255,255,255,0.05)" stroke="#444" stroke-width="1"/>
  <rect x="33" y="401" width="12" height="12" rx="2" fill="#6c63ff"/>
  <text x="52" y="412" fill="#e0e0e0" font-size="9" font-family="Arial,sans-serif">Level 0 프로젝트</text>
  <rect x="140" y="401" width="12" height="12" rx="2" fill="#00d4aa"/>
  <text x="158" y="412" fill="#e0e0e0" font-size="9" font-family="Arial,sans-serif">Level 1–2</text>
  <rect x="220" y="401" width="12" height="12" rx="2" fill="rgba(243,156,18,0.5)"/>
  <text x="238" y="412" fill="#e0e0e0" font-size="9" font-family="Arial,sans-serif">Work Package</text>

  <text x="350" y="430" text-anchor="middle" fill="#888" font-size="9" font-family="Arial,sans-serif">규칙: 100% Rule — 상위 항목 = 하위 항목 전체 합</text>
</svg>
