<svg xmlns="http://www.w3.org/2000/svg" viewBox="0 0 720 440" width="720" height="440">
  <defs>
    <linearGradient id="bg" x1="0%" y1="0%" x2="100%" y2="100%">
      <stop offset="0%" style="stop-color:#1e1e3f"/>
      <stop offset="100%" style="stop-color:#16213e"/>
    </linearGradient>
    <marker id="arr" markerWidth="8" markerHeight="6" refX="7" refY="3" orient="auto">
      <polygon points="0 0, 8 3, 0 6" fill="#00d4aa"/>
    </marker>
  </defs>
  <rect width="720" height="440" fill="url(#bg)" rx="12"/>
  <text x="360" y="28" text-anchor="middle" fill="#f39c12" font-size="17" font-family="Arial,sans-serif" font-weight="bold">Day 17 — 스크럼 프레임워크</text>

  <!-- Product Backlog -->
  <rect x="20" y="60" width="130" height="300" rx="8" fill="rgba(108,99,255,0.15)" stroke="#6c63ff" stroke-width="2"/>
  <rect x="20" y="60" width="130" height="30" rx="8" fill="#6c63ff"/>
  <text x="85" y="80" text-anchor="middle" fill="white" font-size="11" font-family="Arial,sans-serif" font-weight="bold">Product Backlog</text>
  <rect x="30" y="102" width="110" height="22" rx="4" fill="rgba(108,99,255,0.5)"/>
  <text x="85" y="117" text-anchor="middle" fill="white" font-size="9" font-family="Arial,sans-serif">🔴 회원가입 (8pt)</text>
  <rect x="30" y="130" width="110" height="22" rx="4" fill="rgba(108,99,255,0.4)"/>
  <text x="85" y="145" text-anchor="middle" fill="white" font-size="9" font-family="Arial,sans-serif">🟠 로그인 (5pt)</text>
  <rect x="30" y="158" width="110" height="22" rx="4" fill="rgba(108,99,255,0.3)"/>
  <text x="85" y="173" text-anchor="middle" fill="white" font-size="9" font-family="Arial,sans-serif">🟡 프로필 (3pt)</text>
  <rect x="30" y="186" width="110" height="22" rx="4" fill="rgba(108,99,255,0.2)"/>
  <text x="85" y="201" text-anchor="middle" fill="white" font-size="9" font-family="Arial,sans-serif">🟢 검색 (8pt)</text>
  <rect x="30" y="214" width="110" height="22" rx="4" fill="rgba(108,99,255,0.15)"/>
  <text x="85" y="229" text-anchor="middle" fill="#aaa" font-size="9" font-family="Arial,sans-serif">결제 (13pt)</text>
  <rect x="30" y="242" width="110" height="22" rx="4" fill="rgba(108,99,255,0.1)"/>
  <text x="85" y="257" text-anchor="middle" fill="#888" font-size="9" font-family="Arial,sans-serif">알림 (5pt)</text>
  <text x="85" y="290" text-anchor="middle" fill="#6c63ff" font-size="9" font-family="Arial,sans-serif" font-weight="bold">PO 관리</text>
  <text x="85" y="305" text-anchor="middle" fill="#888" font-size="8" font-family="Arial,sans-serif">우선순위 정렬</text>
  <text x="85" y="320" text-anchor="middle" fill="#888" font-size="8" font-family="Arial,sans-serif">스토리 포인트</text>
  <text x="85" y="348" text-anchor="middle" fill="#888" font-size="8" font-family="Arial,sans-serif">📌 18개 항목</text>

  <!-- Arrow: Backlog → Sprint Planning -->
  <line x1="153" y1="210" x2="178" y2="210" stroke="#00d4aa" stroke-width="2" marker-end="url(#arr)"/>
  <text x="165" y="202" text-anchor="middle" fill="#00d4aa" font-size="7" font-family="Arial,sans-serif">선택</text>

  <!-- Sprint Planning box -->
  <rect x="180" y="76" width="95" height="50" rx="6" fill="rgba(231,76,60,0.2)" stroke="#e74c3c" stroke-width="1.5"/>
  <text x="227" y="95" text-anchor="middle" fill="#f4b2ae" font-size="9" font-family="Arial,sans-serif" font-weight="bold">📋 Sprint</text>
  <text x="227" y="108" text-anchor="middle" fill="#f4b2ae" font-size="9" font-family="Arial,sans-serif" font-weight="bold">Planning</text>
  <text x="227" y="121" text-anchor="middle" fill="#888" font-size="7" font-family="Arial,sans-serif">최대 8h</text>

  <line x1="227" y1="128" x2="227" y2="152" stroke="#00d4aa" stroke-width="2" marker-end="url(#arr)"/>

  <!-- Sprint Backlog -->
  <rect x="180" y="154" width="95" height="120" rx="6" fill="rgba(0,212,170,0.15)" stroke="#00d4aa" stroke-width="1.5"/>
  <rect x="180" y="154" width="95" height="24" rx="6" fill="#00d4aa"/>
  <text x="227" y="171" text-anchor="middle" fill="white" font-size="9" font-family="Arial,sans-serif" font-weight="bold">Sprint Backlog</text>
  <text x="190" y="192" fill="#ddd" font-size="8" font-family="Arial,sans-serif">☐ 회원가입(8pt)</text>
  <text x="190" y="208" fill="#ddd" font-size="8" font-family="Arial,sans-serif">☐ 로그인(5pt)</text>
  <text x="190" y="224" fill="#ddd" font-size="8" font-family="Arial,sans-serif">☐ 프로필(3pt)</text>
  <text x="190" y="246" fill="#00d4aa" font-size="8" font-family="Arial,sans-serif" font-weight="bold">= 16pt 목표</text>
  <text x="190" y="262" fill="#888" font-size="7" font-family="Arial,sans-serif">Sprint Goal 설정</text>

  <!-- Daily arrows -->
  <line x1="277" y1="215" x2="302" y2="215" stroke="#00d4aa" stroke-width="2" marker-end="url(#arr)"/>

  <!-- Sprint execution box with Daily Scrum -->
  <rect x="303" y="80" width="200" height="300" rx="10" fill="rgba(243,156,18,0.08)" stroke="#f39c12" stroke-width="2.5"/>
  <rect x="303" y="80" width="200" height="28" rx="10" fill="rgba(243,156,18,0.4)"/>
  <text x="403" y="99" text-anchor="middle" fill="white" font-size="12" font-family="Arial,sans-serif" font-weight="bold">🏃 SPRINT (2주)</text>

  <!-- Days inside sprint -->
  <rect x="316" y="118" width="174" height="36" rx="5" fill="rgba(255,255,255,0.05)"/>
  <text x="403" y="133" text-anchor="middle" fill="#f39c12" font-size="10" font-family="Arial,sans-serif" font-weight="bold">☀️ Daily Scrum (15분)</text>
  <text x="403" y="147" text-anchor="middle" fill="#ddd" font-size="8" font-family="Arial,sans-serif">어제? / 오늘? / 블로커?</text>

  <!-- Kanban mini board inside sprint -->
  <rect x="316" y="162" width="174" height="160" rx="5" fill="rgba(0,0,0,0.3)"/>
  <text x="363" y="176" text-anchor="middle" fill="#888" font-size="8">To Do</text>
  <text x="403" y="176" text-anchor="middle" fill="#888" font-size="8">Doing</text>
  <text x="443" y="176" text-anchor="middle" fill="#888" font-size="8">Done</text>
  <line x1="380" y1="162" x2="380" y2="322" stroke="#444" stroke-width="1"/>
  <line x1="422" y1="162" x2="422" y2="322" stroke="#444" stroke-width="1"/>
  <!-- Cards -->
  <rect x="320" y="181" width="55" height="14" rx="2" fill="rgba(108,99,255,0.5)"/>
  <text x="347" y="191" text-anchor="middle" fill="white" font-size="7">프로필</text>
  <rect x="386" y="181" width="30" height="14" rx="2" fill="rgba(243,156,18,0.7)"/>
  <text x="401" y="191" text-anchor="middle" fill="white" font-size="7">로그인</text>
  <rect x="426" y="181" width="55" height="14" rx="2" fill="rgba(0,212,170,0.7)"/>
  <text x="453" y="191" text-anchor="middle" fill="white" font-size="7">회원가입</text>
  <rect x="426" y="200" width="55" height="14" rx="2" fill="rgba(0,212,170,0.5)"/>
  <text x="453" y="210" text-anchor="middle" fill="white" font-size="7">API설계</text>
  <!-- Burndown mini -->
  <text x="403" y="235" text-anchor="middle" fill="#888" font-size="7" font-family="Arial,sans-serif">📉 번다운 차트</text>
  <polyline points="323,254 345,258 367,252 389,244 411,235 433,222 455,218 477,210 489,205"
    fill="none" stroke="#00d4aa" stroke-width="1.5"/>
  <polyline points="323,254 345,260 367,264 389,262 411,258 433,254 455,248 477,240 489,230"
    fill="none" stroke="#e74c3c" stroke-width="1" stroke-dasharray="3,2"/>
  <text x="360" y="280" text-anchor="middle" fill="#888" font-size="7">잔여 스토리포인트 감소</text>
  <text x="403" y="298" text-anchor="middle" fill="#00d4aa" font-size="7">── 이상적 / ─ ─ 실제</text>
  <text x="403" y="314" text-anchor="middle" fill="#888" font-size="7">10일간 16pt 소진 목표</text>

  <!-- Increment -->
  <line x1="408" y1="382" x2="455" y2="382" stroke="#00d4aa" stroke-width="2" marker-end="url(#arr)"/>

  <!-- Reviews & Retro -->
  <rect x="455" y="76" width="115" height="55" rx="6" fill="rgba(0,212,170,0.15)" stroke="#00d4aa" stroke-width="1.5"/>
  <text x="512" y="95" text-anchor="middle" fill="#00d4aa" font-size="10" font-family="Arial,sans-serif" font-weight="bold">🎉 Sprint Review</text>
  <text x="512" y="110" text-anchor="middle" fill="#ddd" font-size="8" font-family="Arial,sans-serif">직접 시연 (PPT 금지)</text>
  <text x="512" y="123" text-anchor="middle" fill="#888" font-size="7" font-family="Arial,sans-serif">이해관계자 피드백</text>

  <line x1="512" y1="133" x2="512" y2="153" stroke="#00d4aa" stroke-width="1.5" marker-end="url(#arr)"/>

  <rect x="455" y="155" width="115" height="55" rx="6" fill="rgba(155,89,182,0.15)" stroke="#9b59b6" stroke-width="1.5"/>
  <text x="512" y="174" text-anchor="middle" fill="#d7b8ff" font-size="10" font-family="Arial,sans-serif" font-weight="bold">🔄 Retrospective</text>
  <text x="512" y="189" text-anchor="middle" fill="#ddd" font-size="8" font-family="Arial,sans-serif">Start/Stop/Continue</text>
  <text x="512" y="202" text-anchor="middle" fill="#888" font-size="7" font-family="Arial,sans-serif">프로세스 개선</text>

  <!-- Increment box -->
  <rect x="455" y="228" width="115" height="50" rx="6" fill="rgba(0,212,170,0.2)" stroke="#00d4aa" stroke-width="2"/>
  <text x="512" y="248" text-anchor="middle" fill="#00d4aa" font-size="10" font-family="Arial,sans-serif" font-weight="bold">✅ Increment</text>
  <text x="512" y="264" text-anchor="middle" fill="#ddd" font-size="8" font-family="Arial,sans-serif">잠재적 출시 가능</text>
  <text x="512" y="276" text-anchor="middle" fill="#888" font-size="7" font-family="Arial,sans-serif">DoD 충족 필수</text>

  <!-- Repeat arrow -->
  <path d="M 512 278 Q 640 278 640 180 Q 640 60 403 60 Q 220 60 152 140" stroke="#f39c12" stroke-width="1.5" fill="none" stroke-dasharray="8,4" marker-end="url(#arr)"/>
  <text x="600" y="168" fill="#f39c12" font-size="9" font-family="Arial,sans-serif">다음 Sprint</text>

  <!-- Bottom: 3 Roles -->
  <rect x="20" y="392" width="680" height="38" rx="6" fill="rgba(255,255,255,0.04)" stroke="#444" stroke-width="1"/>
  <text x="100" y="407" text-anchor="middle" fill="#6c63ff" font-size="10" font-family="Arial,sans-serif" font-weight="bold">🎯 PO</text>
  <text x="100" y="422" text-anchor="middle" fill="#888" font-size="8">백로그 우선순위</text>
  <text x="290" y="407" text-anchor="middle" fill="#00d4aa" font-size="10" font-family="Arial,sans-serif" font-weight="bold">🛡️ SM</text>
  <text x="290" y="422" text-anchor="middle" fill="#888" font-size="8">장애제거·프로세스 코치</text>
  <text x="490" y="407" text-anchor="middle" fill="#f39c12" font-size="10" font-family="Arial,sans-serif" font-weight="bold">⚙️ 개발팀</text>
  <text x="490" y="422" text-anchor="middle" fill="#888" font-size="8">자기조직화·교차기능 (3-9명)</text>
  <text x="640" y="414" text-anchor="middle" fill="#555" font-size="8" font-family="Arial,sans-serif">3역할</text>
</svg>
