<svg xmlns="http://www.w3.org/2000/svg" viewBox="0 0 720 400" font-family="Arial,sans-serif">
  <defs>
    <linearGradient id="bg" x1="0%" y1="0%" x2="100%" y2="100%">
      <stop offset="0%" stop-color="#1e1e3f"/>
      <stop offset="100%" stop-color="#16213e"/>
    </linearGradient>
  </defs>
  <rect width="720" height="400" fill="url(#bg)" rx="12"/>
  <text x="360" y="26" text-anchor="middle" fill="#e0e0ff" font-size="14" font-weight="bold">DevOps / 로우코드 / 디지털 전환 (DX)</text>
  <text x="360" y="43" text-anchor="middle" fill="#9090c0" font-size="9.5">DevOps 8단계 무한루프 ∙ 로우코드 플랫폼 ∙ DX 4대 기술</text>

  <!-- DevOps Infinity Loop -->
  <rect x="12" y="56" width="380" height="188" rx="9" fill="#12122a" opacity="0.85" stroke="#2a2a5a" stroke-width="1"/>
  <text x="202" y="74" text-anchor="middle" fill="#d0d0ff" font-size="10.5" font-weight="bold">DevOps 파이프라인 (CI/CD)</text>

  <!-- 8 stages in circle layout -->
  <!-- Left Dev side -->
  <rect x="22"  y="84"  width="82" height="30" rx="5" fill="#1a2060" opacity="0.9" stroke="#4a6adc" stroke-width="1"/>
  <text x="63"  y="103" text-anchor="middle" fill="#7ab8ff" font-size="8.5">① 계획 Plan</text>

  <rect x="22"  y="122" width="82" height="30" rx="5" fill="#1a2860" opacity="0.9" stroke="#3a5acc" stroke-width="1"/>
  <text x="63"  y="141" text-anchor="middle" fill="#7ad0ff" font-size="8.5">② 코드 Code</text>

  <rect x="22"  y="160" width="82" height="30" rx="5" fill="#1a3040" opacity="0.9" stroke="#2a7aac" stroke-width="1"/>
  <text x="63"  y="179" text-anchor="middle" fill="#6ac0f0" font-size="8.5">③ 빌드 Build</text>

  <rect x="22"  y="198" width="82" height="30" rx="5" fill="#1a3a20" opacity="0.9" stroke="#2a8a4a" stroke-width="1"/>
  <text x="63"  y="217" text-anchor="middle" fill="#7dff9a" font-size="8.5">④ 테스트 Test</text>

  <!-- Right Ops side -->
  <rect x="286" y="84"  width="96" height="30" rx="5" fill="#3a2a10" opacity="0.9" stroke="#ca8a2a" stroke-width="1"/>
  <text x="334" y="103" text-anchor="middle" fill="#ffc070" font-size="8.5">⑤ 릴리즈 Release</text>

  <rect x="286" y="122" width="96" height="30" rx="5" fill="#3a1a10" opacity="0.9" stroke="#ca4a2a" stroke-width="1"/>
  <text x="334" y="141" text-anchor="middle" fill="#ff9060" font-size="8.5">⑥ 배포 Deploy</text>

  <rect x="286" y="160" width="96" height="30" rx="5" fill="#2a2a10" opacity="0.9" stroke="#8a9a2a" stroke-width="1"/>
  <text x="334" y="179" text-anchor="middle" fill="#e0d060" font-size="8.5">⑦ 운영 Operate</text>

  <rect x="286" y="198" width="96" height="30" rx="5" fill="#1a2a3a" opacity="0.9" stroke="#2a6a9a" stroke-width="1"/>
  <text x="334" y="217" text-anchor="middle" fill="#70c0f0" font-size="8.5">⑧ 감시 Monitor</text>

  <!-- Infinity symbol arrows -->
  <path d="M104,99 Q195,60 286,99" fill="none" stroke="#4a8adc" stroke-width="1.5" stroke-dasharray="4,2"/>
  <polygon points="286,96 293,99 286,102" fill="#4a8adc"/>
  <path d="M104,213 Q195,252 286,213" fill="none" stroke="#4a8adc" stroke-width="1.5" stroke-dasharray="4,2"/>
  <polygon points="104,210 97,213 104,216" fill="#4a8adc"/>
  <!-- Down arrows left -->
  <line x1="63" y1="114" x2="63" y2="122" stroke="#4a6adc" stroke-width="1.2"/>
  <polygon points="60,122 63,129 66,122" fill="#4a6adc"/>
  <line x1="63" y1="152" x2="63" y2="160" stroke="#4a6adc" stroke-width="1.2"/>
  <polygon points="60,160 63,167 66,160" fill="#4a6adc"/>
  <line x1="63" y1="190" x2="63" y2="198" stroke="#4a6adc" stroke-width="1.2"/>
  <polygon points="60,198 63,205 66,198" fill="#4a6adc"/>
  <!-- Down arrows right -->
  <line x1="334" y1="114" x2="334" y2="122" stroke="#ca8a2a" stroke-width="1.2"/>
  <polygon points="331,122 334,129 337,122" fill="#ca8a2a"/>
  <line x1="334" y1="152" x2="334" y2="160" stroke="#ca8a2a" stroke-width="1.2"/>
  <polygon points="331,160 334,167 337,160" fill="#ca8a2a"/>
  <line x1="334" y1="190" x2="334" y2="198" stroke="#ca8a2a" stroke-width="1.2"/>
  <polygon points="331,198 334,205 337,198" fill="#ca8a2a"/>

  <!-- Center CI/CD label -->
  <text x="195" y="148" text-anchor="middle" fill="#9090c0" font-size="9" font-weight="bold">CI/CD</text>
  <text x="195" y="162" text-anchor="middle" fill="#9090c0" font-size="9" font-weight="bold">자동화</text>
  <text x="195" y="178" text-anchor="middle" fill="#5070a0" font-size="7.5">Git + Jenkins</text>
  <text x="195" y="190" text-anchor="middle" fill="#5070a0" font-size="7.5">Docker + K8s</text>

  <!-- Low-Code & DX right panel -->
  <rect x="406" y="56" width="302" height="188" rx="9" fill="#12122a" opacity="0.85" stroke="#2a2a5a" stroke-width="1"/>
  <text x="557" y="74" text-anchor="middle" fill="#d0d0ff" font-size="10.5" font-weight="bold">로우코드 &amp; DX 핵심 기술</text>

  <rect x="416" y="82" width="132" height="90" rx="6" fill="#1a3a20" opacity="0.8"/>
  <text x="482" y="97"  text-anchor="middle" fill="#7dff9a" font-size="9" font-weight="bold">로우코드 / 노코드</text>
  <text x="482" y="111" text-anchor="middle" fill="#40a060" font-size="7.5">• 시각적 드래그&amp;드롭</text>
  <text x="482" y="123" text-anchor="middle" fill="#40a060" font-size="7.5">• 기업용: OutSystems</text>
  <text x="482" y="135" text-anchor="middle" fill="#40a060" font-size="7.5">  Mendix, PowerApps</text>
  <text x="482" y="147" text-anchor="middle" fill="#40a060" font-size="7.5">• 개발 속도 5~10x↑</text>
  <text x="482" y="160" text-anchor="middle" fill="#205030" font-size="7.5">PM: 비즈니스 팀 주도</text>

  <rect x="560" y="82" width="140" height="90" rx="6" fill="#2a1a5c" opacity="0.8"/>
  <text x="630" y="97"  text-anchor="middle" fill="#c084f5" font-size="9" font-weight="bold">DX 4대 기술</text>
  <text x="630" y="111" text-anchor="middle" fill="#8060b0" font-size="7.5">① AI/ML — 자동화·예측</text>
  <text x="630" y="123" text-anchor="middle" fill="#8060b0" font-size="7.5">② 클라우드 — 확장성</text>
  <text x="630" y="135" text-anchor="middle" fill="#8060b0" font-size="7.5">③ IoT — 실시간 데이터</text>
  <text x="630" y="147" text-anchor="middle" fill="#8060b0" font-size="7.5">④ 블록체인 — 신뢰</text>
  <text x="630" y="160" text-anchor="middle" fill="#402080" font-size="7.5">PM: 변화 관리 핵심</text>

  <rect x="416" y="180" width="284" height="56" rx="6" fill="#0e0e2a" opacity="0.8"/>
  <text x="558" y="196" text-anchor="middle" fill="#d0d0ff" font-size="9" font-weight="bold">DevOps PM 핵심 역할</text>
  <text x="558" y="210" text-anchor="middle" fill="#9090c0" font-size="7.5">• 스프린트/릴리즈 계획 · 기술부채 가시화 · 자동화 투자 ROI 설명</text>
  <text x="558" y="222" text-anchor="middle" fill="#9090c0" font-size="7.5">• 개발↔운영 사일로 제거 · DORA 메트릭 추적 (배포빈도·변경실패율)</text>
  <text x="558" y="233" text-anchor="middle" fill="#5060a0" font-size="7">DORA: Deployment Frequency / Lead Time / MTTR / Change Failure Rate</text>

  <!-- Bottom -->
  <rect x="12" y="254" width="696" height="140" rx="10" fill="#0e0e2a" opacity="0.85" stroke="#2a2a4a" stroke-width="1"/>
  <text x="360" y="272" text-anchor="middle" fill="#d0d0ff" font-size="10.5" font-weight="bold">디지털 전환(DX) — PM 관점 성공 요인</text>
  <rect x="22"  y="280" width="157" height="106" rx="6" fill="#1a2060" opacity="0.8"/>
  <rect x="189" y="280" width="157" height="106" rx="6" fill="#1a3a20" opacity="0.8"/>
  <rect x="356" y="280" width="157" height="106" rx="6" fill="#3a2a10" opacity="0.8"/>
  <rect x="523" y="280" width="183" height="106" rx="6" fill="#2a1a5c" opacity="0.8"/>
  <text x="100" y="295" text-anchor="middle" fill="#7ab8ff" font-size="8.5" font-weight="bold">경영진 후원</text>
  <text x="100" y="308" text-anchor="middle" fill="#5070a0" font-size="7.5">• C-level 스폰서십 필수</text>
  <text x="100" y="319" text-anchor="middle" fill="#5070a0" font-size="7.5">• 예산·조직 지원 확보</text>
  <text x="100" y="330" text-anchor="middle" fill="#5070a0" font-size="7.5">• 변화 저항 극복 리더십</text>
  <text x="100" y="341" text-anchor="middle" fill="#5070a0" font-size="7.5">• DX 비전 명확화</text>
  <text x="100" y="356" text-anchor="middle" fill="#3050a0" font-size="7.5">★ 실패 원인 1위:</text>
  <text x="100" y="368" text-anchor="middle" fill="#3050a0" font-size="7.5">리더십 부재</text>
  <text x="267" y="295" text-anchor="middle" fill="#7dff9a" font-size="8.5" font-weight="bold">애자일 전환</text>
  <text x="267" y="308" text-anchor="middle" fill="#40a060" font-size="7.5">• 반복·점진적 접근법</text>
  <text x="267" y="319" text-anchor="middle" fill="#40a060" font-size="7.5">• MVP 빠른 검증</text>
  <text x="267" y="330" text-anchor="middle" fill="#40a060" font-size="7.5">• 부서 간 협업 문화</text>
  <text x="267" y="341" text-anchor="middle" fill="#40a060" font-size="7.5">• 실험·실패 허용 환경</text>
  <text x="267" y="356" text-anchor="middle" fill="#205030" font-size="7.5">★ Scrum/Kanban</text>
  <text x="267" y="368" text-anchor="middle" fill="#205030" font-size="7.5">OKR 목표 정렬</text>
  <text x="434" y="295" text-anchor="middle" fill="#ffc070" font-size="8.5" font-weight="bold">인재·역량</text>
  <text x="434" y="308" text-anchor="middle" fill="#906030" font-size="7.5">• DX 전문인력 채용·육성</text>
  <text x="434" y="319" text-anchor="middle" fill="#906030" font-size="7.5">• Re-skilling 프로그램</text>
  <text x="434" y="330" text-anchor="middle" fill="#906030" font-size="7.5">• 디지털 네이티브 협업</text>
  <text x="434" y="341" text-anchor="middle" fill="#906030" font-size="7.5">• PM 기술 역량 강화</text>
  <text x="434" y="356" text-anchor="middle" fill="#604020" font-size="7.5">★ 기술 + 업무 융합</text>
  <text x="434" y="368" text-anchor="middle" fill="#604020" font-size="7.5">하이브리드 인재</text>
  <text x="614" y="295" text-anchor="middle" fill="#c084f5" font-size="8.5" font-weight="bold">데이터 기반 결정</text>
  <text x="614" y="308" text-anchor="middle" fill="#8060b0" font-size="7.5">• 직관 → 데이터 문화</text>
  <text x="614" y="319" text-anchor="middle" fill="#8060b0" font-size="7.5">• 실시간 대시보드</text>
  <text x="614" y="330" text-anchor="middle" fill="#8060b0" font-size="7.5">• KPI vs OKR 균형</text>
  <text x="614" y="341" text-anchor="middle" fill="#8060b0" font-size="7.5">• AI 의사결정 보조</text>
  <text x="614" y="356" text-anchor="middle" fill="#402080" font-size="7.5">★ 데이터 거버넌스</text>
  <text x="614" y="368" text-anchor="middle" fill="#402080" font-size="7.5">선행 구축 필수</text>
</svg>
